<svg width="27" height="23" viewBox="0 0 27 23" fill="none" xmlns="http://www.w3.org/2000/svg">
<path d="M19.9945 4.50983C18.2058 2.87711 15.8597 1.97997 13.4305 1.99983C11.0016 1.98197 8.65621 2.87884 6.86643 4.50983C5.29042 5.91194 4.31897 7.86336 4.15397 9.9585C3.98898 12.0536 4.64313 14.1314 5.98048 15.7598L4.39987 20.6698L9.43366 18.3498C10.7012 18.9104 12.0732 19.2 13.4607 19.1998C15.2933 19.2107 17.0913 18.7044 18.6455 17.7398C18.739 17.6818 18.8067 17.5905 18.8348 17.4846C18.8628 17.3786 18.8491 17.2661 18.7965 17.1698C18.7702 17.1214 18.7344 17.0788 18.6911 17.0444C18.6479 17.0101 18.5981 16.9847 18.5448 16.9698C18.4923 16.9549 18.4371 16.9517 18.3832 16.9603C18.3292 16.969 18.2779 16.9893 18.2327 17.0198C16.9445 17.8064 15.4795 18.2621 13.9698 18.3459C12.46 18.4297 10.9531 18.1389 9.58467 17.4998L9.41352 17.4198L5.76906 19.0998L6.9067 15.5698L6.75568 15.3798C5.58787 14.0576 4.94382 12.3588 4.94352 10.5998C4.94352 6.32983 8.74906 2.84983 13.4305 2.84983C18.1119 2.84983 21.9174 6.32983 21.9174 10.5998C21.9294 11.7457 21.6635 12.8776 21.1422 13.8998C21.0896 13.9961 21.0759 14.1086 21.104 14.2146C21.132 14.3205 21.1997 14.4118 21.2932 14.4698C21.3937 14.5084 21.5049 14.5084 21.6053 14.4698C21.6598 14.4544 21.7104 14.4277 21.7537 14.3915C21.7971 14.3553 21.8323 14.3105 21.857 14.2598C22.4545 13.1169 22.7653 11.8476 22.7631 10.5598C22.7504 9.41563 22.4977 8.28663 22.0209 7.24492C21.5442 6.20321 20.8541 5.27169 19.9945 4.50983Z" fill="black"/>
<path d="M11.0738 14.16C11.1418 14.1612 11.2092 14.1464 11.2704 14.1169C11.3317 14.0874 11.385 14.0439 11.4262 13.99L16.178 7.75004C16.2473 7.65832 16.2797 7.5442 16.2687 7.43004C16.2531 7.31686 16.1957 7.21349 16.1076 7.14004C16.0624 7.10527 16.0104 7.08021 15.9549 7.06644C15.8995 7.05267 15.8418 7.05049 15.7854 7.06004C15.7282 7.06507 15.6727 7.0819 15.6224 7.10945C15.5722 7.137 15.5282 7.17467 15.4935 7.22004L10.7315 13.46C10.6631 13.5532 10.6343 13.6694 10.6512 13.7834C10.6682 13.8975 10.7295 14.0004 10.8221 14.07C10.8928 14.1284 10.9819 14.1602 11.0738 14.16Z" fill="black"/>
<path d="M12.4735 9.00014C12.4755 8.68327 12.3828 8.37295 12.207 8.10852C12.0312 7.84409 11.7803 7.63746 11.4862 7.51482C11.192 7.39218 10.8678 7.35907 10.5547 7.41967C10.2416 7.48027 9.95361 7.63187 9.72733 7.85523C9.50104 8.07859 9.34662 8.36366 9.28365 8.6743C9.22068 8.98494 9.25198 9.30715 9.3736 9.6001C9.49522 9.89304 9.70167 10.1435 9.96678 10.3198C10.2319 10.496 10.5437 10.5901 10.8627 10.5901C11.2882 10.5901 11.6964 10.4229 11.9982 10.1251C12.3 9.82715 12.4709 9.42275 12.4735 9.00014ZM10.1379 9.00014C10.1359 8.85492 10.1775 8.71242 10.2575 8.59085C10.3375 8.46929 10.4522 8.37418 10.5869 8.31769C10.7216 8.2612 10.8702 8.2459 11.0137 8.27375C11.1572 8.3016 11.289 8.37133 11.3924 8.47402C11.4958 8.57671 11.566 8.70769 11.594 8.85023C11.6221 8.99276 11.6067 9.14036 11.5498 9.27415C11.4929 9.40794 11.3972 9.52184 11.2748 9.60129C11.1524 9.68073 11.0089 9.72211 10.8627 9.72014C10.7675 9.72014 10.6733 9.70151 10.5853 9.66533C10.4974 9.62915 10.4175 9.57611 10.3502 9.50925C10.2829 9.4424 10.2295 9.36302 10.193 9.27567C10.1566 9.18832 10.1379 9.09469 10.1379 9.00014Z" fill="black"/>
<path d="M16.0268 13.8201C16.343 13.8181 16.6515 13.7232 16.9134 13.5473C17.1753 13.3714 17.3789 13.1224 17.4985 12.8317C17.6181 12.541 17.6484 12.2216 17.5855 11.9138C17.5226 11.6061 17.3694 11.3237 17.1451 11.1023C16.9208 10.881 16.6356 10.7305 16.3254 10.67C16.0151 10.6094 15.6938 10.6415 15.4019 10.7621C15.11 10.8828 14.8606 11.0865 14.6851 11.3478C14.5097 11.6091 14.416 11.9161 14.416 12.2301C14.416 12.4398 14.4577 12.6473 14.5388 12.8409C14.6199 13.0345 14.7387 13.2102 14.8884 13.358C15.0381 13.5057 15.2158 13.6226 15.4112 13.702C15.6065 13.7813 15.8158 13.8214 16.0268 13.8201ZM16.0268 11.5101C16.2191 11.5101 16.4034 11.586 16.5394 11.721C16.6753 11.856 16.7517 12.0391 16.7517 12.2301C16.7517 12.4211 16.6753 12.6042 16.5394 12.7392C16.4034 12.8742 16.2191 12.9501 16.0268 12.9501C15.8346 12.9501 15.6502 12.8742 15.5143 12.7392C15.3783 12.6042 15.302 12.4211 15.302 12.2301C15.302 12.0391 15.3783 11.856 15.5143 11.721C15.6502 11.586 15.8346 11.5101 16.0268 11.5101Z" fill="black"/>
</svg>
