<svg width="26" height="23" viewBox="0 0 26 23" fill="none" xmlns="http://www.w3.org/2000/svg">
<path d="M23.8301 12.75C23.773 12.543 23.6817 12.3469 23.5601 12.17C23.3018 11.803 22.9096 11.5522 22.4681 11.4717C22.0266 11.3913 21.5712 11.4876 21.2001 11.74L18.7101 13.32C18.6168 13.3847 18.5495 13.4803 18.5201 13.59C18.5095 13.6469 18.5102 13.7053 18.5222 13.762C18.5342 13.8186 18.5573 13.8723 18.5901 13.92C18.6209 13.9664 18.6606 14.0062 18.707 14.0371C18.7533 14.068 18.8054 14.0894 18.8601 14.1C18.9158 14.1148 18.9744 14.1148 19.0301 14.1C19.0827 14.0827 19.1331 14.0592 19.1801 14.03L21.6701 12.46C21.8518 12.3314 22.0763 12.2784 22.2964 12.3119C22.5164 12.3455 22.7149 12.4631 22.8501 12.64C22.9148 12.7255 22.9609 12.8237 22.9855 12.9281C23.0101 13.0326 23.0126 13.141 22.9928 13.2464C22.973 13.3519 22.9314 13.452 22.8707 13.5405C22.8099 13.6289 22.7314 13.7037 22.6401 13.76L22.1801 14.11L21.8301 14.35C17.6801 17.15 16.7601 17.74 16.5701 17.84C16.4781 17.9083 16.3717 17.9546 16.259 17.9754C16.1463 17.9962 16.0304 17.991 15.9201 17.96L10.2201 16.27C10.0467 16.2103 9.86229 16.1898 9.68007 16.21C9.49664 16.2415 9.32247 16.3132 9.17007 16.42L8.66007 16.78L6.37007 13.56C7.11007 13.03 8.97007 11.72 9.37007 11.45C9.50956 11.3738 9.66334 11.3273 9.82168 11.3136C9.98003 11.2998 10.1395 11.319 10.2901 11.37L16.4901 13.37C16.6222 13.4029 16.7463 13.4624 16.8546 13.5449C16.9629 13.6275 17.0533 13.7313 17.1201 13.85C17.1616 13.9314 17.1886 14.0193 17.2001 14.11C17.2201 14.1955 17.2201 14.2845 17.2001 14.37C17.1042 14.5711 16.9439 14.7344 16.7446 14.8341C16.5453 14.9337 16.3185 14.9639 16.1001 14.92L12.9301 13.92C12.8201 13.8811 12.7001 13.8811 12.5901 13.92C12.5398 13.9518 12.4958 13.9924 12.4601 14.04C12.4287 14.0858 12.4051 14.1365 12.3901 14.19C12.368 14.2404 12.3567 14.2949 12.3567 14.35C12.3567 14.405 12.368 14.4595 12.3901 14.51C12.4434 14.6095 12.5329 14.6846 12.6401 14.72L15.8301 15.72C15.9698 15.7602 16.1146 15.7804 16.2601 15.78C16.6394 15.7944 17.0132 15.6865 17.3265 15.4723C17.6398 15.258 17.876 14.9487 18.0001 14.59C18.0594 14.3925 18.0798 14.1853 18.0601 13.98C18.0379 13.7723 17.9733 13.5715 17.8701 13.39C17.7486 13.1774 17.5862 12.9911 17.3923 12.8417C17.1983 12.6924 16.9766 12.583 16.7401 12.52L10.5401 10.52C10.2718 10.436 9.98895 10.4096 9.70982 10.4423C9.43069 10.4751 9.16159 10.5663 8.92007 10.71C8.48007 10.97 6.76007 12.19 5.92007 12.78H5.84007L5.45007 12.24C5.38729 12.1686 5.30309 12.1195 5.21007 12.1H5.05007C4.9883 12.1082 4.92972 12.1323 4.88007 12.17L2.14007 14.17C2.09543 14.1994 2.05731 14.2376 2.02806 14.2823C1.99882 14.327 1.97908 14.3773 1.97007 14.43C1.94561 14.4897 1.93558 14.5543 1.94079 14.6186C1.94601 14.6829 1.96631 14.745 2.00007 14.8L4.25007 17.93C4.27951 17.9776 4.31887 18.0183 4.36546 18.0494C4.41205 18.0805 4.46478 18.1011 4.52007 18.11C4.58751 18.1262 4.658 18.1245 4.72462 18.1052C4.79124 18.086 4.8517 18.0497 4.90007 18C4.98616 17.9296 5.04316 17.8299 5.06007 17.72C5.07046 17.6194 5.0495 17.5181 5.00007 17.43L3.00007 14.65L5.00007 13.21L8.40007 17.94L6.40007 19.37L6.00007 18.83C5.9387 18.7398 5.84605 18.6757 5.74007 18.65C5.68158 18.6386 5.62141 18.6389 5.56305 18.6509C5.50468 18.6629 5.44928 18.6864 5.40007 18.72C5.35057 18.7492 5.30928 18.7905 5.28007 18.84C5.24828 18.8918 5.22783 18.9497 5.22007 19.01C5.20522 19.0657 5.20522 19.1243 5.22007 19.18C5.23315 19.2311 5.25702 19.2788 5.29007 19.32L5.91007 20.22C5.95485 20.2794 6.01311 20.3274 6.08007 20.36C6.14576 20.3761 6.21437 20.3761 6.28007 20.36C6.34297 20.3704 6.40716 20.3704 6.47007 20.36L9.23007 18.36C9.32204 18.2984 9.38933 18.2063 9.42007 18.1C9.42997 18.0437 9.42997 17.9862 9.42007 17.93C9.41184 17.8682 9.38772 17.8096 9.35007 17.76L9.15007 17.47L9.64007 17.11C9.68027 17.0789 9.72928 17.0614 9.78007 17.06C9.83235 17.045 9.88779 17.045 9.94007 17.06L15.6701 18.77C15.8918 18.8327 16.1239 18.85 16.3524 18.8208C16.581 18.7916 16.8013 18.7165 17.0001 18.6C17.3301 18.41 19.1101 17.23 22.2701 15.1L23.1401 14.48C23.3209 14.3547 23.475 14.1947 23.5935 14.0093C23.712 13.8238 23.7924 13.6167 23.8301 13.4C23.8751 13.1857 23.8751 12.9643 23.8301 12.75Z" fill="black"/>
<path d="M14.4292 9.11018C14.5036 9.16784 14.595 9.19946 14.6892 9.20018C14.7524 9.19193 14.8131 9.1697 14.8667 9.13511C14.9203 9.10052 14.9656 9.05443 14.9992 9.00018L19.7192 2.76018C19.7581 2.71756 19.7865 2.66642 19.8021 2.61085C19.8177 2.55529 19.8202 2.49684 19.8092 2.44018C19.7893 2.32618 19.7289 2.22319 19.6392 2.15018C19.5469 2.08303 19.4322 2.05434 19.3192 2.07018C19.2614 2.07577 19.2055 2.09388 19.1554 2.12324C19.1054 2.15259 19.0623 2.1925 19.0292 2.24018L14.3492 8.51018C14.314 8.5544 14.2881 8.60528 14.273 8.65975C14.2579 8.71422 14.254 8.77118 14.2615 8.8272C14.269 8.88322 14.2877 8.93716 14.3165 8.98578C14.3453 9.03441 14.3836 9.07672 14.4292 9.11018Z" fill="black"/>
<path d="M14.5103 5.61992C14.8259 5.6199 15.1344 5.52654 15.3971 5.3516C15.6597 5.17666 15.8648 4.92794 15.9865 4.63675C16.1081 4.34555 16.141 4.02487 16.0808 3.71506C16.0207 3.40525 15.8703 3.12014 15.6485 2.8956C15.4268 2.67106 15.1435 2.51712 14.8345 2.45314C14.5255 2.38917 14.2044 2.41801 13.9117 2.53605C13.619 2.65409 13.3678 2.85605 13.1896 3.11653C13.0114 3.377 12.9142 3.68435 12.9103 3.99992C12.9076 4.21171 12.9471 4.42192 13.0263 4.61836C13.1055 4.8148 13.2229 4.99355 13.3718 5.14424C13.5206 5.29494 13.6979 5.41459 13.8933 5.49625C14.0888 5.5779 14.2985 5.61994 14.5103 5.61992ZM13.7803 3.99992C13.7829 3.80805 13.861 3.62493 13.9976 3.49019C14.1342 3.35544 14.3184 3.2799 14.5103 3.27992C14.6048 3.27992 14.6985 3.29855 14.7858 3.33473C14.8732 3.37091 14.9525 3.42395 15.0194 3.49081C15.0863 3.55766 15.1393 3.63704 15.1755 3.72439C15.2117 3.81174 15.2303 3.90537 15.2303 3.99992C15.2303 4.19181 15.1548 4.37599 15.02 4.51261C14.8853 4.64922 14.7022 4.72729 14.5103 4.72992C14.4144 4.72992 14.3195 4.71104 14.2309 4.67435C14.1424 4.63767 14.0619 4.5839 13.9941 4.51611C13.9263 4.44832 13.8725 4.36785 13.8358 4.27928C13.7992 4.19071 13.7803 4.09579 13.7803 3.99992Z" fill="black"/>
<path d="M18 7.27018C18 7.58465 18.0933 7.89206 18.268 8.15353C18.4427 8.41501 18.691 8.6188 18.9815 8.73914C19.2721 8.85949 19.5918 8.89098 19.9002 8.82962C20.2086 8.76827 20.4919 8.61684 20.7143 8.39448C20.9367 8.17211 21.0881 7.8888 21.1494 7.58037C21.2108 7.27194 21.1793 6.95224 21.059 6.66171C20.9386 6.37117 20.7348 6.12285 20.4734 5.94814C20.2119 5.77343 19.9045 5.68018 19.59 5.68018C19.1691 5.6828 18.7662 5.85116 18.4686 6.14877C18.171 6.44639 18.0026 6.84929 18 7.27018ZM20.31 7.27018C20.31 7.46113 20.2341 7.64427 20.0991 7.77929C19.9641 7.91432 19.781 7.99018 19.59 7.99018C19.399 7.99018 19.2159 7.91432 19.0809 7.77929C18.9459 7.64427 18.87 7.46113 18.87 7.27018C18.87 7.07922 18.9459 6.89609 19.0809 6.76106C19.2159 6.62603 19.399 6.55018 19.59 6.55018C19.781 6.55018 19.9641 6.62603 20.0991 6.76106C20.2341 6.89609 20.31 7.07922 20.31 7.27018Z" fill="black"/>
</svg>
