<svg width="28" height="31" viewBox="0 0 28 31" fill="none" xmlns="http://www.w3.org/2000/svg">
<path d="M20.108 7.67772C18.4589 6.00563 16.2582 5.06559 13.9118 5.0312C11.5355 4.99722 9.28449 5.89632 7.57473 7.56554C5.8662 9.23312 4.91306 11.4592 4.89055 13.833C4.85943 17.101 6.60358 20.0964 9.45194 21.6853V23.8557C9.45194 24.5579 10.0231 25.129 10.7253 25.129H16.833C17.5352 25.129 18.1064 24.5579 18.1064 23.8557V21.6853C20.924 20.1132 22.6682 17.151 22.6682 13.9194C22.6682 11.5681 21.7588 9.35145 20.108 7.67772ZM17.7444 21.3234L17.615 21.393V23.8561C17.615 24.2872 17.2642 24.6381 16.833 24.6381H10.7253C10.2941 24.6381 9.94325 24.2872 9.94325 23.8561V21.393L9.81387 21.3234C7.05026 19.8401 5.35197 16.9716 5.38186 13.8375C5.40315 11.5951 6.30388 9.4927 7.91824 7.91682C9.50394 6.3692 11.5809 5.52128 13.7796 5.52128C13.8213 5.52128 13.8635 5.52169 13.9052 5.5221C16.1219 5.55445 18.2009 6.44249 19.7588 8.02205C21.3183 9.60324 22.1773 11.6974 22.1773 13.919C22.1768 17.0187 20.4786 19.856 17.7444 21.3234Z" fill="#00B5DD"/>
<path d="M16.7186 25.8389H10.8396C10.275 25.8389 9.81567 26.2982 9.81567 26.8628C9.81567 27.3738 10.1919 27.7988 10.682 27.8745C10.5825 28.0326 10.5248 28.2193 10.5248 28.4195C10.5248 28.9218 10.888 29.3407 11.3658 29.4271C11.2646 29.5859 11.2057 29.7743 11.2057 29.9761C11.2057 30.5407 11.665 31.0001 12.2296 31.0001H15.3286C15.8932 31.0001 16.3525 30.5407 16.3525 29.9761C16.3525 29.7743 16.294 29.5859 16.1925 29.4271C16.6703 29.3407 17.0334 28.9218 17.0334 28.4195C17.0334 28.2193 16.9757 28.0326 16.8762 27.8745C17.3663 27.7984 17.7425 27.3738 17.7425 26.8628C17.7425 26.2982 17.2832 25.8389 16.7186 25.8389ZM16.7186 27.3955H16.0094V27.8868C16.303 27.8868 16.5421 28.1259 16.5421 28.4195C16.5421 28.713 16.303 28.9521 16.0094 28.9521H15.3286V29.4434C15.6221 29.4434 15.8612 29.6825 15.8612 29.9761C15.8612 30.2697 15.6221 30.5088 15.3286 30.5088H12.2296C11.9361 30.5088 11.697 30.2697 11.697 29.9761C11.697 29.6825 11.9361 29.4434 12.2296 29.4434H13.0092C13.1447 29.4434 13.2548 29.3333 13.2548 29.1978C13.2548 29.0623 13.1447 28.9521 13.0092 28.9521H12.2296H11.5488C11.2552 28.9521 11.0161 28.713 11.0161 28.4195C11.0161 28.1259 11.2552 27.8868 11.5488 27.8868H14.3034C14.4389 27.8868 14.549 27.7767 14.549 27.6412C14.549 27.5056 14.4389 27.3955 14.3034 27.3955H11.5488H10.8396C10.5461 27.3955 10.307 27.1564 10.307 26.8628C10.307 26.5693 10.5461 26.3302 10.8396 26.3302H16.7186C17.0121 26.3302 17.2512 26.5693 17.2512 26.8628C17.2512 27.1568 17.0121 27.3955 16.7186 27.3955Z" fill="#00B5DD"/>
<path d="M16.2735 12.8926C15.2388 12.8926 14.3967 13.7344 14.3967 14.7694V16.1549H13.1614V14.7694C13.1614 13.7348 12.3197 12.8926 11.2846 12.8926C10.2496 12.8926 9.40784 13.7344 9.40784 14.7694C9.40784 15.8044 10.2496 16.6462 11.2846 16.6462H12.6701V21.1016C12.6701 21.2371 12.7803 21.3472 12.9158 21.3472C13.0513 21.3472 13.1614 21.2371 13.1614 21.1016V16.6462H14.3971V21.1016C14.3971 21.2371 14.5072 21.3472 14.6427 21.3472C14.7782 21.3472 14.8884 21.2371 14.8884 21.1016V16.6462H16.2739C17.3085 16.6462 18.1507 15.8044 18.1507 14.7694C18.1507 13.7344 17.3085 12.8926 16.2735 12.8926ZM12.6701 16.1549H11.2846C10.5206 16.1549 9.89915 15.5334 9.89915 14.7694C9.89915 14.0054 10.5206 13.3839 11.2846 13.3839C12.0486 13.3839 12.6701 14.0054 12.6701 14.7694V16.1549ZM16.2735 16.1549H14.888V14.7694C14.888 14.0054 15.5095 13.3839 16.2735 13.3839C17.0374 13.3839 17.6589 14.0054 17.6589 14.7694C17.6589 15.5334 17.0374 16.1549 16.2735 16.1549Z" fill="#00B5DD"/>
<path d="M5.97359 21.1695L4.12996 23.0131C4.03415 23.1089 4.03415 23.2645 4.12996 23.3603C4.17786 23.4082 4.24091 23.4324 4.30355 23.4324C4.3662 23.4324 4.42925 23.4082 4.47715 23.3603L6.32079 21.5167C6.41659 21.4209 6.41659 21.2653 6.32079 21.1695C6.22498 21.0737 6.06981 21.0737 5.97359 21.1695Z" fill="#00B5DD"/>
<path d="M23.0805 4.06337L21.2369 5.90701C21.1411 6.00281 21.1411 6.15839 21.2369 6.25461C21.2848 6.30251 21.3478 6.32666 21.4105 6.32666C21.4731 6.32666 21.5362 6.30251 21.5841 6.25461L23.4277 4.41097C23.5235 4.31517 23.5235 4.15959 23.4277 4.06337C23.3319 3.96716 23.1763 3.96716 23.0805 4.06337Z" fill="#00B5DD"/>
<path d="M13.7791 3.16493C13.9146 3.16493 14.0248 3.05479 14.0248 2.91927V0.312061C14.0248 0.176541 13.9146 0.0664062 13.7791 0.0664062C13.6436 0.0664062 13.5334 0.176541 13.5334 0.312061V2.91927C13.5334 3.05479 13.6432 3.16493 13.7791 3.16493Z" fill="#00B5DD"/>
<path d="M21.5845 21.1695C21.4887 21.0737 21.3331 21.0737 21.2369 21.1695C21.1411 21.2653 21.1411 21.4209 21.2369 21.5167L23.0805 23.3603C23.1284 23.4082 23.1915 23.4324 23.2541 23.4324C23.3172 23.4324 23.3798 23.4082 23.4277 23.3603C23.5235 23.2645 23.5235 23.1089 23.4277 23.0131L21.5845 21.1695Z" fill="#00B5DD"/>
<path d="M5.97359 6.25389C6.0215 6.30179 6.08455 6.32594 6.14719 6.32594C6.20983 6.32594 6.27288 6.30179 6.32079 6.25389C6.41659 6.15808 6.41659 6.0025 6.32079 5.90629L4.47756 4.06306C4.38175 3.96726 4.22617 3.96726 4.12996 4.06306C4.03415 4.15887 4.03415 4.31445 4.12996 4.41066L5.97359 6.25389Z" fill="#00B5DD"/>
<path d="M27.1788 13.4668H24.5719C24.4364 13.4668 24.3263 13.5769 24.3263 13.7125C24.3263 13.848 24.4364 13.9581 24.5719 13.9581H27.1792C27.3147 13.9581 27.4248 13.848 27.4248 13.7125C27.4248 13.5769 27.3147 13.4668 27.1788 13.4668Z" fill="#00B5DD"/>
<path d="M2.98629 13.4668H0.379077C0.243558 13.4668 0.133423 13.5769 0.133423 13.7125C0.133423 13.848 0.243558 13.9581 0.379077 13.9581H2.98629C3.12181 13.9581 3.23194 13.848 3.23194 13.7125C3.23194 13.5769 3.12181 13.4668 2.98629 13.4668Z" fill="#00B5DD"/>
</svg>
