<svg width="32" height="23" viewBox="0 0 32 23" fill="none" xmlns="http://www.w3.org/2000/svg">
<path d="M0.720528 22.1759H28.3217C29.9681 22.1759 31.3057 20.8382 31.3057 19.2177V4.50394C31.3051 3.71272 30.9905 2.95408 30.431 2.3946C29.8715 1.83513 29.1129 1.52056 28.3217 1.52001H3.67891C2.89219 1.52743 2.14015 1.84501 1.58624 2.40373C1.03232 2.96245 0.721276 3.71718 0.72065 4.50394L0.720528 22.1759ZM28.3217 22.8962H0.360255C0.312643 22.8973 0.265313 22.8888 0.221094 22.8711C0.176875 22.8534 0.13668 22.827 0.103004 22.7933C0.0693279 22.7596 0.0429041 22.7194 0.0252164 22.6752C0.00752861 22.631 -0.001057 22.5836 0.000103829 22.536V4.504C-0.00190952 4.01915 0.0917717 3.53866 0.275607 3.09001C0.459442 2.64136 0.729842 2.23335 1.07149 1.88932C1.41314 1.54529 1.81924 1.272 2.2666 1.08505C2.71396 0.898098 3.19381 0.801161 3.67866 0.799805H28.3214C30.3536 0.799805 32 2.47187 32 4.504V19.2178C32 19.7009 31.9049 20.1792 31.7201 20.6255C31.5352 21.0718 31.2643 21.4773 30.9227 21.8189C30.5811 22.1604 30.1756 22.4314 29.7293 22.6162C29.283 22.801 28.8047 22.8961 28.3217 22.896V22.8962Z" fill="#00B5DD"/>
<path d="M0.694923 22.6387C0.601752 22.6272 0.513178 22.5917 0.437795 22.5358C0.373153 22.4641 0.339507 22.3697 0.344327 22.2733C0.349147 22.1769 0.39205 22.0864 0.46352 22.0215L9.95545 12.9411C10.0272 12.8767 10.1215 12.8433 10.2178 12.8481C10.3142 12.8529 10.4047 12.8956 10.4697 12.9668C10.5015 12.9999 10.5261 13.0392 10.5421 13.0822C10.5581 13.1252 10.5651 13.171 10.5627 13.2168C10.5603 13.2626 10.5486 13.3074 10.5281 13.3485C10.5077 13.3895 10.479 13.426 10.444 13.4556L0.952051 22.5359C0.879051 22.596 0.789219 22.6319 0.694923 22.6387Z" fill="#00B5DD"/>
<path d="M30.5854 21.9191C30.4988 21.9121 30.4171 21.8758 30.3538 21.8162L22.1224 13.7648C22.0576 13.6999 22.0212 13.612 22.0212 13.5204C22.0212 13.4287 22.0576 13.3408 22.1224 13.276C22.1872 13.2112 22.2752 13.1748 22.3668 13.1748C22.4585 13.1748 22.5464 13.2112 22.6112 13.2761L30.8426 21.3017C30.888 21.3543 30.9179 21.4184 30.9288 21.4869C30.9398 21.5555 30.9315 21.6257 30.9048 21.6898C30.8781 21.7539 30.8341 21.8093 30.7777 21.8498C30.7213 21.8903 30.6547 21.9143 30.5855 21.9191L30.5854 21.9191Z" fill="#00B5DD"/>
<path d="M16.4631 15.1537H16.386C15.9017 15.1353 15.4263 15.0186 14.9885 14.8108C14.5507 14.6029 14.1597 14.3083 13.8393 13.9447L1.33791 2.26619C1.26671 2.20116 1.22402 2.11064 1.21921 2.01433C1.21439 1.91802 1.24782 1.82371 1.31218 1.7519C1.44082 1.62326 1.6722 1.59754 1.80084 1.72618L14.3538 13.4303C14.3538 13.456 14.3538 13.456 14.3795 13.456C14.6255 13.754 14.931 13.9973 15.2766 14.1701C15.6222 14.343 16.0001 14.4415 16.3861 14.4596C17.132 14.4853 17.8009 14.1766 18.3411 13.6106L30.2253 2.00937C30.2915 1.94735 30.3788 1.91284 30.4696 1.91284C30.5603 1.91284 30.6477 1.94735 30.714 2.00937C30.8426 2.16372 30.8426 2.3952 30.714 2.52365L18.8554 14.0992C18.551 14.4305 18.1813 14.6952 17.7696 14.8766C17.3579 15.0581 16.9131 15.1525 16.4631 15.1537Z" fill="#00B5DD"/>
</svg>
