<svg width="26" height="23" viewBox="0 0 26 23" fill="none" xmlns="http://www.w3.org/2000/svg">
<path d="M23.8301 12.75C23.773 12.543 23.6817 12.3469 23.5601 12.17C23.3018 11.803 22.9096 11.5522 22.4681 11.4717C22.0266 11.3913 21.5712 11.4876 21.2001 11.74L18.7101 13.32C18.6168 13.3847 18.5495 13.4803 18.5201 13.59C18.5095 13.6469 18.5102 13.7053 18.5222 13.762C18.5342 13.8186 18.5573 13.8723 18.5901 13.92C18.6209 13.9664 18.6606 14.0062 18.707 14.0371C18.7533 14.068 18.8054 14.0894 18.8601 14.1C18.9158 14.1148 18.9744 14.1148 19.0301 14.1C19.0827 14.0827 19.1331 14.0592 19.1801 14.03L21.6701 12.46C21.8518 12.3314 22.0763 12.2784 22.2964 12.3119C22.5164 12.3455 22.7149 12.4631 22.8501 12.64C22.9148 12.7255 22.9609 12.8237 22.9855 12.9281C23.0101 13.0326 23.0126 13.141 22.9928 13.2464C22.973 13.3519 22.9314 13.452 22.8707 13.5405C22.8099 13.6289 22.7314 13.7037 22.6401 13.76L22.1801 14.11L21.8301 14.35C17.6801 17.15 16.7601 17.74 16.5701 17.84C16.4781 17.9083 16.3717 17.9546 16.259 17.9754C16.1463 17.9962 16.0304 17.991 15.9201 17.96L10.2201 16.27C10.0467 16.2103 9.86229 16.1898 9.68007 16.21C9.49664 16.2415 9.32247 16.3132 9.17007 16.42L8.66007 16.78L6.37007 13.56C7.11007 13.03 8.97007 11.72 9.37007 11.45C9.50956 11.3738 9.66334 11.3273 9.82168 11.3136C9.98003 11.2998 10.1395 11.319 10.2901 11.37L16.4901 13.37C16.6222 13.4029 16.7463 13.4624 16.8546 13.5449C16.9629 13.6275 17.0533 13.7313 17.1201 13.85C17.1616 13.9314 17.1886 14.0193 17.2001 14.11C17.2201 14.1955 17.2201 14.2845 17.2001 14.37C17.1042 14.5711 16.9439 14.7344 16.7446 14.8341C16.5453 14.9337 16.3185 14.9639 16.1001 14.92L12.9301 13.92C12.8201 13.8811 12.7001 13.8811 12.5901 13.92C12.5398 13.9518 12.4958 13.9924 12.4601 14.04C12.4287 14.0858 12.4051 14.1365 12.3901 14.19C12.368 14.2404 12.3567 14.2949 12.3567 14.35C12.3567 14.405 12.368 14.4595 12.3901 14.51C12.4434 14.6095 12.5329 14.6846 12.6401 14.72L15.8301 15.72C15.9698 15.7602 16.1146 15.7804 16.2601 15.78C16.639 15.7928 17.0122 15.6843 17.3252 15.4703C17.6382 15.2562 17.8746 14.9478 18.0001 14.59C18.0594 14.3925 18.0798 14.1853 18.0601 13.98C18.0379 13.7723 17.9733 13.5715 17.8701 13.39C17.7486 13.1774 17.5862 12.9911 17.3923 12.8417C17.1983 12.6924 16.9766 12.583 16.7401 12.52L10.5401 10.52C10.2718 10.436 9.98895 10.4096 9.70982 10.4423C9.43069 10.4751 9.16159 10.5663 8.92007 10.71C8.48007 10.97 6.76007 12.19 5.92007 12.78H5.84007L5.45007 12.24C5.38729 12.1686 5.30309 12.1195 5.21007 12.1H5.05007C4.9883 12.1082 4.92972 12.1323 4.88007 12.17L2.14007 14.17C2.09543 14.1994 2.05731 14.2376 2.02806 14.2823C1.99882 14.327 1.97908 14.3773 1.97007 14.43C1.94561 14.4897 1.93558 14.5543 1.94079 14.6186C1.94601 14.6829 1.96631 14.745 2.00007 14.8L4.25007 17.93C4.27951 17.9776 4.31887 18.0183 4.36546 18.0494C4.41205 18.0805 4.46478 18.1011 4.52007 18.11C4.58751 18.1262 4.658 18.1245 4.72462 18.1052C4.79124 18.086 4.8517 18.0497 4.90007 18C4.98616 17.9296 5.04316 17.8299 5.06007 17.72C5.07046 17.6194 5.0495 17.5181 5.00007 17.43L3.00007 14.65L5.00007 13.21L8.40007 17.94L6.40007 19.37L6.00007 18.83C5.9387 18.7398 5.84605 18.6757 5.74007 18.65C5.68158 18.6386 5.62141 18.6389 5.56305 18.6509C5.50468 18.6629 5.44928 18.6864 5.40007 18.72C5.35057 18.7492 5.30928 18.7905 5.28007 18.84C5.24828 18.8918 5.22783 18.9497 5.22007 19.01C5.20522 19.0657 5.20522 19.1243 5.22007 19.18C5.23315 19.2311 5.25702 19.2788 5.29007 19.32L5.91007 20.22C5.95485 20.2794 6.01311 20.3274 6.08007 20.36C6.14576 20.3761 6.21437 20.3761 6.28007 20.36C6.34297 20.3704 6.40716 20.3704 6.47007 20.36L9.23007 18.36C9.32204 18.2984 9.38933 18.2063 9.42007 18.1C9.42997 18.0437 9.42997 17.9862 9.42007 17.93C9.41184 17.8682 9.38772 17.8096 9.35007 17.76L9.15007 17.47L9.64007 17.11C9.68027 17.0789 9.72928 17.0614 9.78007 17.06C9.83235 17.045 9.88779 17.045 9.94007 17.06L15.6701 18.77C15.8918 18.8327 16.1239 18.85 16.3524 18.8208C16.581 18.7916 16.8013 18.7165 17.0001 18.6C17.3301 18.41 19.1101 17.23 22.2701 15.1L23.1401 14.48C23.3209 14.3547 23.475 14.1947 23.5935 14.0093C23.712 13.8238 23.7924 13.6167 23.8301 13.4C23.8751 13.1857 23.8751 12.9643 23.8301 12.75Z" fill="black"/>
<path d="M20.3798 2.64013C20.3999 2.58868 20.3999 2.53157 20.3798 2.48013C20.3619 2.42381 20.331 2.37245 20.2898 2.33013C20.2455 2.28891 20.1949 2.25514 20.1398 2.23013C20.0866 2.22537 20.033 2.22537 19.9798 2.23013H6.99978C6.91206 2.22792 6.82575 2.2526 6.75246 2.30087C6.67917 2.34913 6.62241 2.41866 6.58978 2.50013C6.57945 2.55632 6.57945 2.61393 6.58978 2.67013V8.72013C6.57945 8.77632 6.57945 8.83393 6.58978 8.89013C6.61015 8.94481 6.64466 8.99312 6.68978 9.03012C6.73032 9.0713 6.77769 9.10513 6.82978 9.13013H6.97978H19.9998H20.1698C20.2203 9.10259 20.2673 9.06901 20.3098 9.03012C20.3488 8.98993 20.3794 8.94233 20.3998 8.89013C20.4196 8.8352 20.4196 8.77505 20.3998 8.72013L20.3798 2.64013ZM19.5198 3.05013V8.31013H7.42978V3.05013H19.5198Z" fill="#010101"/>
<path d="M13.5802 7.55016C13.9372 7.54563 14.2852 7.43733 14.5818 7.23846C14.8783 7.03959 15.1106 6.75875 15.2502 6.43016C15.3427 6.20836 15.3902 5.97045 15.3902 5.73016C15.3902 5.48988 15.3427 5.25197 15.2502 5.03016C15.1573 4.80893 15.0214 4.60837 14.8502 4.44016C14.6815 4.27222 14.4809 4.13963 14.2602 4.05016C14.0402 3.95203 13.8011 3.9042 13.5602 3.91016C13.0775 3.91016 12.6146 4.10191 12.2733 4.44323C11.932 4.78455 11.7402 5.24747 11.7402 5.73016C11.7402 6.21286 11.932 6.67578 12.2733 7.0171C12.6146 7.35841 13.0775 7.55016 13.5602 7.55016H13.5802ZM12.6902 5.37016C12.7668 5.19543 12.8917 5.04623 13.0502 4.94016C13.2063 4.83368 13.3913 4.77782 13.5802 4.78016C13.8342 4.78374 14.0774 4.88385 14.2602 5.06016C14.4365 5.24304 14.5367 5.48616 14.5402 5.74016C14.5426 5.92907 14.4867 6.11412 14.3802 6.27016C14.2742 6.42872 14.125 6.55363 13.9502 6.63016C13.7674 6.6835 13.5731 6.6835 13.3902 6.63016C13.2048 6.5939 13.0344 6.50317 12.9008 6.36958C12.7672 6.23598 12.6765 6.06559 12.6402 5.88016C12.6123 5.70871 12.6296 5.53294 12.6902 5.37016Z" fill="#010101"/>
<path d="M17.9996 5.41022C18.02 5.46242 18.0506 5.51002 18.0896 5.55022C18.1319 5.59148 18.1833 5.62229 18.2396 5.64022C18.2924 5.65073 18.3468 5.65073 18.3996 5.64022C18.4524 5.65073 18.5068 5.65073 18.5596 5.64022C18.6087 5.61513 18.6527 5.58123 18.6896 5.54022C18.7286 5.50002 18.7592 5.45242 18.7796 5.40022C18.7882 5.34723 18.7882 5.29321 18.7796 5.24022V4.07022C18.7891 4.01731 18.7891 3.96312 18.7796 3.91022C18.7617 3.85682 18.7307 3.80871 18.6896 3.77022C18.6557 3.72616 18.6109 3.69169 18.5596 3.67022C18.5066 3.66107 18.4525 3.66107 18.3996 3.67022C18.3433 3.66071 18.2859 3.66071 18.2296 3.67022C18.1768 3.68951 18.129 3.72024 18.0896 3.76022C18.0421 3.79921 18.0073 3.85142 17.9896 3.91022C17.98 3.96312 17.98 4.01731 17.9896 4.07022V5.23022C17.9834 5.29037 17.9867 5.35113 17.9996 5.41022Z" fill="#010101"/>
<path d="M8.14994 7.60013C8.18784 7.64429 8.23587 7.6786 8.28994 7.70013C8.34284 7.70969 8.39703 7.70969 8.44994 7.70013C8.50613 7.71046 8.56374 7.71046 8.61994 7.70013C8.67149 7.67851 8.71887 7.64805 8.75994 7.61013C8.80226 7.56675 8.83617 7.51588 8.85994 7.46013C8.86949 7.40723 8.86949 7.35304 8.85994 7.30013V6.12013C8.85943 6.06397 8.84766 6.00849 8.82533 5.95696C8.803 5.90543 8.77056 5.8589 8.72994 5.82013C8.64797 5.7413 8.53866 5.69727 8.42494 5.69727C8.31121 5.69727 8.20191 5.7413 8.11994 5.82013C8.04498 5.90233 8.00235 6.00891 7.99994 6.12013V7.29013C7.9896 7.34633 7.9896 7.40393 7.99994 7.46013C8.0353 7.52036 8.08742 7.569 8.14994 7.60013Z" fill="#010101"/>
</svg>
