<svg width="32" height="32" viewBox="0 0 32 32" fill="none" xmlns="http://www.w3.org/2000/svg">
<g clip-path="url(#clip0_2121_4789)">
<path d="M9.88468 1.14933C9.42227 1.14886 8.96431 1.23957 8.537 1.41631C8.1097 1.59305 7.72148 1.85233 7.3945 2.17931C7.06753 2.50629 6.80824 2.89456 6.6315 3.32186C6.45477 3.74917 6.36404 4.20718 6.36452 4.66959V27.3305C6.36726 28.2633 6.73904 29.1571 7.39861 29.8167C8.05818 30.4762 8.95191 30.848 9.88468 30.8507H22.8213C23.754 30.848 24.6478 30.4762 25.3074 29.8167C25.9669 29.1571 26.3387 28.2633 26.3414 27.3305V4.66959C26.3419 4.20718 26.2512 3.74917 26.0745 3.32186C25.8978 2.89456 25.6385 2.50629 25.3115 2.17931C24.9845 1.85233 24.5962 1.59305 24.1689 1.41631C23.7416 1.23957 23.2837 1.14886 22.8213 1.14933H9.88468ZM22.8213 31.4668H9.88468C7.61859 31.4668 5.77051 29.6187 5.77051 27.3306V4.66964C5.77051 2.38152 7.61853 0.53345 9.88468 0.53345H22.8213C23.3646 0.532841 23.9027 0.639392 24.4048 0.847038C24.9069 1.05468 25.3631 1.35935 25.7473 1.74355C26.1315 2.12775 26.4362 2.58395 26.6438 3.08604C26.8515 3.58814 26.9581 4.1263 26.9575 4.66964V27.3305C26.9581 27.8739 26.8515 28.412 26.6438 28.9141C26.4362 29.4162 26.1315 29.8724 25.7473 30.2566C25.3631 30.6408 24.9069 30.9454 24.4048 31.1531C23.9027 31.3607 23.3646 31.4673 22.8213 31.4667V31.4668Z" fill="#00B5DD"/>
<path d="M16.1111 26.8903C16.0169 26.8875 15.923 26.9037 15.8351 26.9378C15.7472 26.9719 15.6671 27.0233 15.5995 27.089C15.5318 27.1546 15.478 27.2332 15.4413 27.32C15.4046 27.4068 15.3857 27.5001 15.3857 27.5944C15.3857 27.6887 15.4046 27.782 15.4413 27.8688C15.478 27.9556 15.5318 28.0342 15.5995 28.0998C15.6671 28.1655 15.7472 28.2169 15.8351 28.251C15.923 28.2851 16.0169 28.3013 16.1111 28.2984C16.2978 28.2984 16.4769 28.2243 16.6089 28.0922C16.7409 27.9602 16.8151 27.7811 16.8151 27.5944C16.8151 27.4077 16.7409 27.2286 16.6089 27.0966C16.4769 26.9645 16.2978 26.8903 16.1111 26.8903ZM16.1111 28.9145C15.85 28.9145 15.5948 28.8371 15.3777 28.6921C15.1606 28.547 14.9914 28.3408 14.8915 28.0996C14.7916 27.8584 14.7655 27.593 14.8164 27.3369C14.8673 27.0809 14.993 26.8457 15.1777 26.661C15.3623 26.4764 15.5975 26.3507 15.8536 26.2998C16.1096 26.2488 16.375 26.275 16.6162 26.3749C16.8575 26.4748 17.0636 26.644 17.2087 26.8611C17.3537 27.0782 17.4311 27.3334 17.4311 27.5945C17.4301 27.9443 17.2907 28.2794 17.0433 28.5267C16.796 28.7741 16.4609 28.9135 16.1111 28.9145Z" fill="#00B5DD"/>
<path d="M19.3451 4.18551H13.3168C13.2356 4.18382 13.1583 4.15087 13.1009 4.09348C13.0435 4.03608 13.0105 3.95872 13.0088 3.87757C13.0142 3.79768 13.0484 3.72245 13.105 3.66583C13.1617 3.6092 13.2369 3.575 13.3168 3.56958H19.3451C19.4262 3.57127 19.5036 3.60428 19.561 3.66167C19.6184 3.71906 19.6514 3.79642 19.6531 3.87757C19.6541 3.91829 19.6467 3.95875 19.6316 3.99656C19.6165 4.03438 19.5939 4.06873 19.5651 4.09753C19.5363 4.12633 19.5019 4.14898 19.4641 4.16411C19.4263 4.17923 19.3858 4.18651 19.3451 4.18551Z" fill="#00B5DD"/>
<path d="M16.7274 21.8083H8.16895V21.1922H16.1114V13.008H8.23506V12.3918H16.7275L16.7274 21.8083Z" fill="#00B5DD"/>
<path d="M18.4213 19.5642H17.8052V11.2478H8.25684V10.6318H18.4213V19.5642Z" fill="#00B5DD"/>
<path d="M8.16895 19.2563V18.6624C8.38855 18.6625 8.606 18.6193 8.8089 18.5353C9.01181 18.4513 9.1962 18.3281 9.35148 18.1728C9.50677 18.0175 9.62993 17.8331 9.71394 17.6302C9.79794 17.4273 9.84111 17.2099 9.84104 16.9903C9.84104 16.0883 9.09302 15.3402 8.16895 15.3402V14.7241C8.76996 14.7241 9.34635 14.9629 9.77133 15.3878C10.1963 15.8128 10.4351 16.3892 10.4351 16.9902C10.4351 17.5912 10.1963 18.1676 9.77133 18.5926C9.34635 19.0176 8.76996 19.2563 8.16895 19.2563Z" fill="#00B5DD"/>
<path d="M14.5493 16.5064C14.4681 16.5047 14.3908 16.4717 14.3334 16.4143C14.276 16.3569 14.243 16.2796 14.2413 16.1985V14.3283C14.2403 14.2876 14.2476 14.2471 14.2628 14.2093C14.2779 14.1715 14.3005 14.1372 14.3293 14.1084C14.3581 14.0796 14.3924 14.0569 14.4303 14.0418C14.4681 14.0267 14.5086 14.0194 14.5493 14.0204C14.6304 14.0221 14.7078 14.0551 14.7652 14.1124C14.8226 14.1698 14.8556 14.2472 14.8573 14.3283V16.1985C14.8519 16.2784 14.8177 16.3536 14.761 16.4102C14.7044 16.4669 14.6292 16.501 14.5493 16.5064Z" fill="#00B5DD"/>
<path d="M29.8968 5.14038C29.9067 5.14045 29.9165 5.14107 29.9263 5.14223C29.9644 5.1411 30.0023 5.14788 30.0377 5.16217C30.073 5.17645 30.105 5.19792 30.1317 5.2252L30.96 6.05358C31.0057 6.10099 31.0312 6.16426 31.0312 6.23011C31.0312 6.29595 31.0057 6.35923 30.96 6.40664C30.9369 6.4317 30.909 6.45195 30.8781 6.46621C30.8471 6.48047 30.8136 6.48847 30.7796 6.48975C30.7455 6.49102 30.7115 6.48553 30.6795 6.47363C30.6476 6.46172 30.6183 6.44363 30.5934 6.42037L30.1571 5.98382V19.1152C30.158 19.1508 30.1516 19.1861 30.1384 19.2191C30.1251 19.2521 30.1054 19.2821 30.0802 19.3073C30.0551 19.3324 30.0251 19.3522 29.9921 19.3654C29.9591 19.3786 29.9238 19.385 29.8882 19.3842C29.8542 19.383 29.8206 19.3751 29.7896 19.361C29.7586 19.3468 29.7307 19.3266 29.7075 19.3016C29.6843 19.2766 29.6662 19.2473 29.6544 19.2153C29.6426 19.1833 29.6372 19.1493 29.6386 19.1152V6.02534L29.2574 6.40659C29.2328 6.43235 29.2034 6.45286 29.1707 6.46688C29.138 6.48089 29.1028 6.48813 29.0672 6.48813C29.0316 6.48813 28.9965 6.48089 28.9638 6.46688C28.9311 6.45286 28.9016 6.43235 28.8771 6.40659C28.8538 6.38167 28.8357 6.3524 28.8237 6.32045C28.8118 6.2885 28.8063 6.25451 28.8076 6.22043C28.8088 6.18635 28.8168 6.15288 28.831 6.1219C28.8453 6.09092 28.8655 6.06303 28.8906 6.0399L29.6908 5.23978C29.714 5.20919 29.7438 5.18428 29.778 5.16697C29.8123 5.14966 29.85 5.14042 29.8883 5.13992L29.8968 5.14038Z" fill="#00B5DD"/>
<path d="M2.20085 24.7981C2.19099 24.798 2.18115 24.7974 2.17136 24.7963C2.13325 24.7974 2.09532 24.7906 2.05997 24.7763C2.02462 24.762 1.99263 24.7406 1.966 24.7133L1.13763 23.8849C1.09194 23.8375 1.06641 23.7742 1.06641 23.7084C1.06641 23.6425 1.09194 23.5793 1.13763 23.5318C1.16075 23.5068 1.18861 23.4865 1.21958 23.4723C1.25055 23.458 1.28402 23.45 1.31809 23.4487C1.35216 23.4475 1.38616 23.4529 1.41811 23.4648C1.45006 23.4768 1.47934 23.4948 1.50427 23.5181L1.94054 23.9547V10.8233C1.9397 10.7877 1.94609 10.7524 1.9593 10.7194C1.97252 10.6863 1.99228 10.6564 2.01741 10.6312C2.04255 10.6061 2.07252 10.5863 2.10552 10.5731C2.13852 10.5598 2.17388 10.5534 2.20942 10.5543C2.24351 10.5554 2.27703 10.5633 2.30805 10.5775C2.33908 10.5917 2.36698 10.6118 2.39019 10.6368C2.41339 10.6618 2.43141 10.6912 2.44324 10.7232C2.45506 10.7551 2.46046 10.7892 2.4591 10.8233V23.9131L2.84029 23.5319C2.86481 23.5061 2.8943 23.4856 2.92699 23.4716C2.95968 23.4576 2.99489 23.4503 3.03045 23.4503C3.06602 23.4503 3.1012 23.4576 3.13389 23.4716C3.16657 23.4856 3.19607 23.5061 3.22059 23.5319C3.24387 23.5568 3.26199 23.5861 3.27392 23.618C3.28585 23.65 3.29135 23.684 3.29009 23.718C3.28883 23.7521 3.28085 23.7856 3.26661 23.8166C3.25236 23.8476 3.23214 23.8754 3.20709 23.8986L2.40684 24.6987C2.3837 24.7293 2.35386 24.7542 2.31963 24.7715C2.2854 24.7888 2.24768 24.7981 2.20932 24.7986L2.20085 24.7981Z" fill="#00B5DD"/>
</g>
<defs>
<clipPath id="clip0_2121_4789">
<rect width="32" height="32" fill="white"/>
</clipPath>
</defs>
</svg>
