<svg width="32" height="32" viewBox="0 0 32 32" fill="none" xmlns="http://www.w3.org/2000/svg">
<g clip-path="url(#clip0_2121_4817)">
<path d="M22.1085 8.67772C20.4594 7.00563 18.2587 6.06559 15.9123 6.0312C13.536 5.99722 11.285 6.89632 9.57522 8.56554C7.86669 10.2331 6.91355 12.4592 6.89103 14.833C6.85992 18.101 8.60407 21.0964 11.4524 22.6853V24.8557C11.4524 25.5579 12.0236 26.129 12.7257 26.129H18.8335C19.5357 26.129 20.1068 25.5579 20.1068 24.8557V22.6853C22.9245 21.1132 24.6686 18.151 24.6686 14.9194C24.6686 12.5681 23.7593 10.3514 22.1085 8.67772ZM19.7449 22.3234L19.6155 22.393V24.8561C19.6155 25.2872 19.2647 25.6381 18.8335 25.6381H12.7257C12.2946 25.6381 11.9437 25.2872 11.9437 24.8561V22.393L11.8144 22.3234C9.05075 20.8401 7.35246 17.9716 7.38234 14.8375C7.40363 12.5951 8.30437 10.4927 9.91873 8.91682C11.5044 7.3692 13.5814 6.52128 15.78 6.52128C15.8218 6.52128 15.864 6.52169 15.9057 6.5221C18.1224 6.55445 20.2014 7.44249 21.7593 9.02205C23.3188 10.6032 24.1777 12.6974 24.1777 14.919C24.1773 18.0187 22.479 20.856 19.7449 22.3234Z" fill="#00B5DD"/>
<path d="M18.7193 26.8389H12.8404C12.2758 26.8389 11.8164 27.2982 11.8164 27.8628C11.8164 28.3738 12.1927 28.7988 12.6827 28.8745C12.5833 29.0326 12.5255 29.2193 12.5255 29.4195C12.5255 29.9218 12.8887 30.3407 13.3665 30.4271C13.2654 30.5859 13.2064 30.7743 13.2064 30.9761C13.2064 31.5407 13.6658 32.0001 14.2304 32.0001H17.3293C17.8939 32.0001 18.3533 31.5407 18.3533 30.9761C18.3533 30.7743 18.2947 30.5859 18.1932 30.4271C18.671 30.3407 19.0341 29.9218 19.0341 29.4195C19.0341 29.2193 18.9764 29.0326 18.8769 28.8745C19.367 28.7984 19.7433 28.3738 19.7433 27.8628C19.7433 27.2982 19.2839 26.8389 18.7193 26.8389ZM18.7193 28.3955H18.0102V28.8868C18.3037 28.8868 18.5428 29.1259 18.5428 29.4195C18.5428 29.713 18.3037 29.9521 18.0102 29.9521H17.3293V30.4434C17.6229 30.4434 17.862 30.6825 17.862 30.9761C17.862 31.2697 17.6229 31.5088 17.3293 31.5088H14.2304C13.9368 31.5088 13.6977 31.2697 13.6977 30.9761C13.6977 30.6825 13.9368 30.4434 14.2304 30.4434H15.0099C15.1454 30.4434 15.2556 30.3333 15.2556 30.1978C15.2556 30.0623 15.1454 29.9521 15.0099 29.9521H14.2304H13.5495C13.2559 29.9521 13.0168 29.713 13.0168 29.4195C13.0168 29.1259 13.2559 28.8868 13.5495 28.8868H16.3041C16.4396 28.8868 16.5498 28.7767 16.5498 28.6412C16.5498 28.5056 16.4396 28.3955 16.3041 28.3955H13.5495H12.8404C12.5468 28.3955 12.3077 28.1564 12.3077 27.8628C12.3077 27.5693 12.5468 27.3302 12.8404 27.3302H18.7193C19.0129 27.3302 19.252 27.5693 19.252 27.8628C19.252 28.1568 19.0129 28.3955 18.7193 28.3955Z" fill="#00B5DD"/>
<path d="M18.2738 13.8926C17.2392 13.8926 16.397 14.7344 16.397 15.7694V17.1549H15.1618V15.7694C15.1618 14.7348 14.32 13.8926 13.285 13.8926C12.25 13.8926 11.4082 14.7344 11.4082 15.7694C11.4082 16.8044 12.25 17.6462 13.285 17.6462H14.6705V22.1016C14.6705 22.2371 14.7806 22.3472 14.9161 22.3472C15.0517 22.3472 15.1618 22.2371 15.1618 22.1016V17.6462H16.3974V22.1016C16.3974 22.2371 16.5076 22.3472 16.6431 22.3472C16.7786 22.3472 16.8887 22.2371 16.8887 22.1016V17.6462H18.2742C19.3088 17.6462 20.151 16.8044 20.151 15.7694C20.151 14.7344 19.3088 13.8926 18.2738 13.8926ZM14.6705 17.1549H13.285C12.521 17.1549 11.8995 16.5334 11.8995 15.7694C11.8995 15.0054 12.521 14.3839 13.285 14.3839C14.049 14.3839 14.6705 15.0054 14.6705 15.7694V17.1549V17.1549ZM18.2738 17.1549H16.8883V15.7694C16.8883 15.0054 17.5098 14.3839 18.2738 14.3839C19.0378 14.3839 19.6593 15.0054 19.6593 15.7694C19.6593 16.5334 19.0378 17.1549 18.2738 17.1549Z" fill="#00B5DD"/>
<path d="M7.97408 22.17L6.13045 24.0136C6.03464 24.1094 6.03464 24.265 6.13045 24.3608C6.17835 24.4087 6.2414 24.4329 6.30404 24.4329C6.36668 24.4329 6.42974 24.4087 6.47764 24.3608L8.32127 22.5172C8.41708 22.4214 8.41708 22.2658 8.32127 22.17C8.22547 22.0742 8.0703 22.0742 7.97408 22.17Z" fill="#00B5DD"/>
<path d="M25.0805 5.06362L23.2369 6.90725C23.1411 7.00306 23.1411 7.15864 23.2369 7.25485C23.2848 7.30275 23.3478 7.32691 23.4105 7.32691C23.4731 7.32691 23.5362 7.30275 23.5841 7.25485L25.4277 5.41122C25.5235 5.31541 25.5235 5.15983 25.4277 5.06362C25.3319 4.9674 25.1763 4.9674 25.0805 5.06362Z" fill="#00B5DD"/>
<path d="M15.7798 4.16517C15.9154 4.16517 16.0255 4.05504 16.0255 3.91952V1.3123C16.0255 1.17679 15.9154 1.06665 15.7798 1.06665C15.6443 1.06665 15.5342 1.17679 15.5342 1.3123V3.91952C15.5342 4.05504 15.6439 4.16517 15.7798 4.16517Z" fill="#00B5DD"/>
<path d="M23.5845 22.17C23.4887 22.0742 23.3331 22.0742 23.2369 22.17C23.1411 22.2658 23.1411 22.4214 23.2369 22.5172L25.0805 24.3608C25.1284 24.4087 25.1915 24.4329 25.2541 24.4329C25.3172 24.4329 25.3798 24.4087 25.4277 24.3608C25.5235 24.265 25.5235 24.1094 25.4277 24.0136L23.5845 22.17Z" fill="#00B5DD"/>
<path d="M7.97408 7.25437C8.02198 7.30228 8.08504 7.32643 8.14768 7.32643C8.21032 7.32643 8.27337 7.30228 8.32127 7.25437C8.41708 7.15857 8.41708 7.00299 8.32127 6.90677L6.47805 5.06355C6.38224 4.96775 6.22666 4.96775 6.13045 5.06355C6.03464 5.15936 6.03464 5.31494 6.13045 5.41115L7.97408 7.25437Z" fill="#00B5DD"/>
<path d="M29.1796 14.4666H26.5728C26.4373 14.4666 26.3271 14.5767 26.3271 14.7122C26.3271 14.8477 26.4373 14.9579 26.5728 14.9579H29.18C29.3155 14.9579 29.4257 14.8477 29.4257 14.7122C29.4257 14.5767 29.3155 14.4666 29.1796 14.4666Z" fill="#00B5DD"/>
<path d="M4.98666 14.4666H2.37944C2.24392 14.4666 2.13379 14.5767 2.13379 14.7122C2.13379 14.8477 2.24392 14.9579 2.37944 14.9579H4.98666C5.12218 14.9579 5.23231 14.8477 5.23231 14.7122C5.23231 14.5767 5.12218 14.4666 4.98666 14.4666Z" fill="#00B5DD"/>
</g>
<defs>
<clipPath id="clip0_2121_4817">
<rect width="32" height="32" fill="white"/>
</clipPath>
</defs>
</svg>
