<svg width="24" height="24" viewBox="0 0 24 24" fill="none" xmlns="http://www.w3.org/2000/svg">
<g clip-path="url(#clip0_1353_3603)">
<path fill-rule="evenodd" clip-rule="evenodd" d="M12.0232 22.5C14.6592 22.5 17.1872 21.3938 19.0511 19.4246C20.9151 17.4555 21.9622 14.7848 21.9622 12C21.9622 9.21523 20.9151 6.54451 19.0511 4.57538C17.1872 2.60625 14.6592 1.5 12.0232 1.5C9.38719 1.5 6.85916 2.60625 4.99524 4.57538C3.13131 6.54451 2.08417 9.21523 2.08417 12C2.08417 14.7848 3.13131 17.4555 4.99524 19.4246C6.85916 21.3938 9.38719 22.5 12.0232 22.5ZM12.0232 24C15.0357 24 17.9249 22.7357 20.0551 20.4853C22.1853 18.2348 23.3821 15.1826 23.3821 12C23.3821 8.8174 22.1853 5.76516 20.0551 3.51472C17.9249 1.26428 15.0357 0 12.0232 0C9.01062 0 6.12145 1.26428 3.99124 3.51472C1.86104 5.76516 0.664307 8.8174 0.664307 12C0.664307 15.1826 1.86104 18.2348 3.99124 20.4853C6.12145 22.7357 9.01062 24 12.0232 24Z" fill="#0068B4"/>
<path d="M13.3436 9.88202L10.0921 10.3125L9.97572 10.8825L10.6147 11.007C11.0321 11.112 11.1144 11.271 11.0236 11.7105L9.97572 16.9125C9.70026 18.258 10.1248 18.891 11.123 18.891C11.8968 18.891 12.7956 18.513 13.2031 17.994L13.328 17.37C13.044 17.634 12.6294 17.739 12.354 17.739C11.9635 17.739 11.8215 17.4495 11.9223 16.9395L13.3436 9.88202Z" fill="#0068B4"/>
<path d="M12.0231 8.25C12.8073 8.25 13.443 7.57843 13.443 6.75C13.443 5.92157 12.8073 5.25 12.0231 5.25C11.239 5.25 10.6033 5.92157 10.6033 6.75C10.6033 7.57843 11.239 8.25 12.0231 8.25Z" fill="#0068B4"/>
</g>
<defs>
<clipPath id="clip0_1353_3603">
<rect width="22.7177" height="24" fill="white" transform="translate(0.664307)"/>
</clipPath>
</defs>
</svg>
